<svg width="68" height="75" viewBox="0 0 68 75" fill="none" xmlns="http://www.w3.org/2000/svg">
<path d="M63.375 34.9001L63.3625 34.9376C60.2 54.5751 38.1625 73.7501 24.5375 73.7501C11.05 73.7501 1.25 65.5251 1.25 52.6001C1.25 39.6751 11.125 33.0001 18.4125 31.4501C29.4375 29.1001 33.6625 27.1376 38.0125 20.8751C38.6881 19.9154 39.5058 19.0639 40.4375 18.3501C41.1 20.6751 50.6125 17.9501 53.8125 18.7501C63.3875 21.1251 60.4375 33.6876 63.375 34.9001Z" fill="#9D27B0"/>
<path d="M41.6987 19.1888C41.0237 19.0551 40.5649 18.7976 40.4374 18.3501C40.0624 18.6485 39.7051 18.9686 39.3674 19.3088C40.0662 19.3138 40.8612 19.2638 41.6987 19.1888Z" fill="#6A1B9A"/>
<path d="M53.8126 18.7499C52.5228 18.5519 51.211 18.5439 49.9189 18.7262C49.9639 18.7362 50.0201 18.7387 50.0626 18.7499C59.6376 21.1249 56.6876 33.6874 59.6251 34.8999L59.6126 34.9374C56.5664 53.8524 36.0126 72.3299 22.3289 73.6649C23.0539 73.7149 23.7876 73.75 24.5376 73.75C38.1626 73.75 60.2001 54.5749 63.3626 34.9374L63.3751 34.8999C60.4376 33.6874 63.3876 21.1249 53.8126 18.7499Z" fill="#6A1B9A"/>
<path d="M63.875 35C63.7033 35.0007 63.5332 34.9667 63.375 34.9C60.4375 33.6875 63.3875 21.125 53.8125 18.75C50.6125 17.95 41.1 20.675 40.4375 18.35C40.3125 17.8875 40.5375 17.2 41.25 16.25C44.9875 11.25 52.5625 12.5 56.325 12.5C60.0875 12.5 56.325 3.75 56.325 3.75C57.5875 1.25 61.3625 1.25 61.3625 1.25C66.3875 8.75 61.3625 12.5 63.875 16.25C66.3875 20 67.6375 35 63.875 35Z" fill="#60A917"/>
<path d="M63.875 16.25C61.3625 12.5 66.3875 8.75 61.3625 1.25C60.2291 1.27955 59.1149 1.54968 58.0938 2.0425C62.25 9.0125 57.7037 12.6363 60.125 16.25C62 19.0575 63.1788 28.1688 62.0713 32.5725C62.3463 33.7638 62.7088 34.625 63.375 34.9C63.5332 34.9667 63.7033 35.0007 63.875 35C67.6375 35 66.3875 20 63.875 16.25Z" fill="#549414"/>
<path d="M6.25 51.2501C5.55964 51.2501 5 50.6904 5 50.0001C5 46.7963 8.06125 38.8976 17.1562 36.2988C17.5901 36.1608 18.0647 36.2696 18.3951 36.5829C18.7255 36.8961 18.8595 37.3643 18.7448 37.8049C18.6301 38.2455 18.2849 38.5889 17.8438 38.7013C9.34125 41.1313 7.5 48.3451 7.5 50.0001C7.5 50.6904 6.94036 51.2501 6.25 51.2501Z" fill="#F5F5F5"/>
<path d="M6.25 56.25C6.94036 56.25 7.5 55.6904 7.5 55C7.5 54.3096 6.94036 53.75 6.25 53.75C5.55964 53.75 5 54.3096 5 55C5 55.6904 5.55964 56.25 6.25 56.25Z" fill="#F5F5F5"/>
<path d="M24.5377 75C38.6627 75 60.5552 55.975 64.3964 36.1937C65.2979 35.976 66.0487 35.3548 66.4314 34.51C68.5214 30.5912 67.2552 19.0537 64.9102 15.5538C64.1789 14.4637 64.3127 13.3675 64.6114 11.5238C65.5012 7.71893 64.6928 3.71525 62.3964 0.55375C62.1642 0.207483 61.7746 -0.000203076 61.3577 1.49007e-07C61.1727 1.49007e-07 56.7977 0.0362501 55.2139 3.18875C55.0479 3.5189 55.0364 3.90561 55.1827 4.245C56.2977 6.83875 57.1502 10.3237 56.5889 11.175C56.5689 11.205 56.5389 11.25 56.3302 11.25C55.7764 11.25 55.1364 11.2225 54.4389 11.1912C50.2102 11 43.8227 10.7287 40.2502 15.5C39.7143 16.1556 39.3493 16.9338 39.1877 17.765C38.353 18.4648 37.613 19.2703 36.9864 20.1612C33.0214 25.8687 29.3239 27.8438 18.1527 30.2262C7.55126 32.4187 -0.0392876 41.7744 0.000152986 52.6C0.000152986 65.7887 10.0902 75 24.5377 75ZM42.2502 17C45.0327 13.2838 50.4064 13.5188 54.3302 13.6888C55.0689 13.7213 55.7439 13.75 56.3302 13.75C57.2675 13.7843 58.1556 13.3301 58.6764 12.55C60.0827 10.4125 58.5602 5.925 57.7352 3.875C58.545 3.10531 59.596 2.63939 60.7102 2.55625C62.353 5.09109 62.8726 8.19321 62.1452 11.125C61.8364 13.0237 61.5202 14.985 62.8327 16.9487C64.6777 19.6987 65.8514 30.29 64.2252 33.3363C64.0802 33.6087 63.9364 33.7525 63.8502 33.755C63.4327 33.495 63.1002 31.4625 62.8789 30.1175C62.1689 25.8 61.0964 19.2762 54.1114 17.54C53.4799 17.4009 52.8341 17.3375 52.1877 17.3512C50.6537 17.393 49.1229 17.514 47.6014 17.7137C45.7064 17.9262 42.6189 18.2712 41.6927 17.9225C41.8355 17.591 42.023 17.2806 42.2502 17ZM18.6727 32.6725C29.6464 30.3337 34.3727 28.3075 39.0402 21.5875C39.4437 21.0274 39.9045 20.5108 40.4152 20.0463C41.9389 20.8438 44.6327 20.5588 47.8877 20.1962C49.7454 19.8825 51.6353 19.8039 53.5127 19.9625C58.9002 21.3025 59.7402 26.4137 60.4152 30.5212C60.7389 32.4975 61.0677 34.3787 61.9964 35.4175C58.5827 53.9287 37.5552 72.5 24.5377 72.5C11.3564 72.5 2.50015 64.5 2.50015 52.6C2.50015 39.5575 13.0789 33.8625 18.6727 32.6725Z" fill="black"/>
</svg>
